<mxfile host="app.diagrams.net" modified="2024-06-13T11:20:57.232Z" agent="Mozilla/5.0 (X11; Linux x86_64; rv:127.0) Gecko/20100101 Firefox/127.0" etag="R2yWWgRO7Yg7Me8OfBda" version="24.5.4" type="github">
  <diagram name="Page-1" id="gF6UFK7chyScmTmYwceF">
    <mxGraphModel dx="1155" dy="673" grid="0" gridSize="10" guides="1" tooltips="1" connect="1" arrows="1" fold="1" page="0" pageScale="1" pageWidth="850" pageHeight="1100" math="0" shadow="0">
      <root>
        <mxCell id="0" />
        <mxCell id="1" parent="0" />
        <mxCell id="C3ymOm5gCoxCKybidC8n-1" value=":View AccettazionePalestra" style="rounded=0;whiteSpace=wrap;html=1;fillColor=#ffe6cc;strokeColor=#d79b00;" parent="1" vertex="1">
          <mxGeometry x="256" y="40" width="170" height="60" as="geometry" />
        </mxCell>
        <mxCell id="C3ymOm5gCoxCKybidC8n-2" value="Amministratore" style="rounded=0;whiteSpace=wrap;html=1;" parent="1" vertex="1">
          <mxGeometry x="40" y="40" width="170" height="60" as="geometry" />
        </mxCell>
        <mxCell id="C3ymOm5gCoxCKybidC8n-3" value=":GestioneAmministratore Controller" style="rounded=0;whiteSpace=wrap;html=1;fillColor=#d5e8d4;strokeColor=#82b366;" parent="1" vertex="1">
          <mxGeometry x="694" y="40" width="170" height="60" as="geometry" />
        </mxCell>
        <mxCell id="C3ymOm5gCoxCKybidC8n-4" value="" style="endArrow=none;dashed=1;html=1;rounded=0;exitX=0.5;exitY=1;exitDx=0;exitDy=0;" parent="1" source="C3ymOm5gCoxCKybidC8n-2" edge="1">
          <mxGeometry width="50" height="50" relative="1" as="geometry">
            <mxPoint x="312" y="249" as="sourcePoint" />
            <mxPoint x="124" y="529" as="targetPoint" />
          </mxGeometry>
        </mxCell>
        <mxCell id="C3ymOm5gCoxCKybidC8n-5" value="" style="endArrow=none;dashed=1;html=1;rounded=0;exitX=0.5;exitY=1;exitDx=0;exitDy=0;" parent="1" source="C3ymOm5gCoxCKybidC8n-1" edge="1">
          <mxGeometry width="50" height="50" relative="1" as="geometry">
            <mxPoint x="341.5" y="104" as="sourcePoint" />
            <mxPoint x="340.5" y="533" as="targetPoint" />
          </mxGeometry>
        </mxCell>
        <mxCell id="C3ymOm5gCoxCKybidC8n-6" value="" style="endArrow=none;dashed=1;html=1;rounded=0;exitX=0.5;exitY=1;exitDx=0;exitDy=0;" parent="1" source="C3ymOm5gCoxCKybidC8n-3" edge="1">
          <mxGeometry width="50" height="50" relative="1" as="geometry">
            <mxPoint x="779.5" y="104" as="sourcePoint" />
            <mxPoint x="778.5" y="533" as="targetPoint" />
          </mxGeometry>
        </mxCell>
        <mxCell id="C3ymOm5gCoxCKybidC8n-7" value="" style="endArrow=open;html=1;rounded=0;endFill=0;fillColor=#d5e8d4;strokeColor=#82b366;" parent="1" edge="1">
          <mxGeometry width="50" height="50" relative="1" as="geometry">
            <mxPoint x="126" y="140" as="sourcePoint" />
            <mxPoint x="340" y="140" as="targetPoint" />
          </mxGeometry>
        </mxCell>
        <mxCell id="C3ymOm5gCoxCKybidC8n-8" value="&lt;font color=&quot;#82b366&quot; style=&quot;font-size: 9px;&quot;&gt;show()&lt;/font&gt;" style="edgeLabel;html=1;align=center;verticalAlign=middle;resizable=0;points=[];" parent="C3ymOm5gCoxCKybidC8n-7" vertex="1" connectable="0">
          <mxGeometry x="-0.004" y="2" relative="1" as="geometry">
            <mxPoint as="offset" />
          </mxGeometry>
        </mxCell>
        <mxCell id="C3ymOm5gCoxCKybidC8n-11" value="" style="endArrow=block;html=1;rounded=0;endFill=1;fillColor=#d5e8d4;strokeColor=#82b366;" parent="1" edge="1">
          <mxGeometry width="50" height="50" relative="1" as="geometry">
            <mxPoint x="126" y="176" as="sourcePoint" />
            <mxPoint x="341" y="176" as="targetPoint" />
          </mxGeometry>
        </mxCell>
        <mxCell id="C3ymOm5gCoxCKybidC8n-12" value="&lt;font color=&quot;#82b366&quot;&gt;validazione&lt;/font&gt;" style="edgeLabel;html=1;align=center;verticalAlign=middle;resizable=0;points=[];" parent="C3ymOm5gCoxCKybidC8n-11" vertex="1" connectable="0">
          <mxGeometry x="-0.004" y="2" relative="1" as="geometry">
            <mxPoint as="offset" />
          </mxGeometry>
        </mxCell>
        <mxCell id="C3ymOm5gCoxCKybidC8n-13" value="" style="endArrow=block;html=1;rounded=0;endFill=1;fillColor=#d5e8d4;strokeColor=#82b366;" parent="1" edge="1">
          <mxGeometry width="50" height="50" relative="1" as="geometry">
            <mxPoint x="342" y="248" as="sourcePoint" />
            <mxPoint x="557" y="248" as="targetPoint" />
          </mxGeometry>
        </mxCell>
        <mxCell id="C3ymOm5gCoxCKybidC8n-14" value="&lt;font color=&quot;#82b366&quot; style=&quot;font-size: 5px;&quot;&gt;validazionePalestra()&lt;/font&gt;" style="edgeLabel;html=1;align=center;verticalAlign=middle;resizable=0;points=[];" parent="C3ymOm5gCoxCKybidC8n-13" vertex="1" connectable="0">
          <mxGeometry x="-0.042" y="1" relative="1" as="geometry">
            <mxPoint as="offset" />
          </mxGeometry>
        </mxCell>
        <mxCell id="C3ymOm5gCoxCKybidC8n-15" value="" style="endArrow=block;html=1;rounded=0;endFill=1;fillColor=#d5e8d4;strokeColor=#82b366;" parent="1" edge="1">
          <mxGeometry width="50" height="50" relative="1" as="geometry">
            <mxPoint x="1043" y="223" as="sourcePoint" />
            <mxPoint x="1265" y="223" as="targetPoint" />
          </mxGeometry>
        </mxCell>
        <mxCell id="C3ymOm5gCoxCKybidC8n-16" value="&lt;font style=&quot;font-size: 9px;&quot;&gt;create&lt;/font&gt;" style="edgeLabel;html=1;align=center;verticalAlign=middle;resizable=0;points=[];" parent="C3ymOm5gCoxCKybidC8n-15" vertex="1" connectable="0">
          <mxGeometry x="-0.0886" y="1" relative="1" as="geometry">
            <mxPoint as="offset" />
          </mxGeometry>
        </mxCell>
        <mxCell id="C3ymOm5gCoxCKybidC8n-17" value=":Palestra" style="rounded=0;whiteSpace=wrap;html=1;fillColor=#dae8fc;strokeColor=#6c8ebf;" parent="1" vertex="1">
          <mxGeometry x="1178" y="35" width="170" height="60" as="geometry" />
        </mxCell>
        <mxCell id="C3ymOm5gCoxCKybidC8n-18" value="" style="endArrow=none;dashed=1;html=1;rounded=0;exitX=0.5;exitY=1;exitDx=0;exitDy=0;" parent="1" source="C3ymOm5gCoxCKybidC8n-17" edge="1">
          <mxGeometry width="50" height="50" relative="1" as="geometry">
            <mxPoint x="1263.5" y="99" as="sourcePoint" />
            <mxPoint x="1262.5" y="528" as="targetPoint" />
          </mxGeometry>
        </mxCell>
        <mxCell id="C3ymOm5gCoxCKybidC8n-20" value="" style="endArrow=open;dashed=1;html=1;strokeWidth=2;rounded=0;fillColor=#d5e8d4;strokeColor=#82b366;endFill=0;exitX=0.679;exitY=0.933;exitDx=0;exitDy=0;exitPerimeter=0;" parent="1" edge="1">
          <mxGeometry width="50" height="50" relative="1" as="geometry">
            <mxPoint x="1258.6700000000005" y="264.96199999999976" as="sourcePoint" />
            <mxPoint x="1048" y="265" as="targetPoint" />
          </mxGeometry>
        </mxCell>
        <mxCell id="C3ymOm5gCoxCKybidC8n-21" value="&lt;font style=&quot;font-size: 9px;&quot;&gt;ok&lt;/font&gt;" style="edgeLabel;html=1;align=center;verticalAlign=middle;resizable=0;points=[];" parent="C3ymOm5gCoxCKybidC8n-20" vertex="1" connectable="0">
          <mxGeometry x="-0.005" relative="1" as="geometry">
            <mxPoint as="offset" />
          </mxGeometry>
        </mxCell>
        <mxCell id="C3ymOm5gCoxCKybidC8n-22" value="" style="endArrow=open;dashed=1;html=1;strokeWidth=2;rounded=0;fillColor=#d5e8d4;strokeColor=#82b366;endFill=0;exitX=0.839;exitY=0.801;exitDx=0;exitDy=0;exitPerimeter=0;entryX=0.705;entryY=0.057;entryDx=0;entryDy=0;entryPerimeter=0;" parent="1" edge="1">
          <mxGeometry width="50" height="50" relative="1" as="geometry">
            <mxPoint x="554" y="503.49317999999994" as="sourcePoint" />
            <mxPoint x="345.4300000000005" y="503.0049999999999" as="targetPoint" />
          </mxGeometry>
        </mxCell>
        <mxCell id="C3ymOm5gCoxCKybidC8n-23" value="&lt;font style=&quot;font-size: 9px;&quot;&gt;ok&lt;/font&gt;" style="edgeLabel;html=1;align=center;verticalAlign=middle;resizable=0;points=[];" parent="C3ymOm5gCoxCKybidC8n-22" vertex="1" connectable="0">
          <mxGeometry x="-0.005" relative="1" as="geometry">
            <mxPoint as="offset" />
          </mxGeometry>
        </mxCell>
        <mxCell id="C3ymOm5gCoxCKybidC8n-24" value="" style="endArrow=open;dashed=1;html=1;strokeWidth=2;rounded=0;fillColor=#d5e8d4;strokeColor=#82b366;endFill=0;exitX=0.884;exitY=0.867;exitDx=0;exitDy=0;exitPerimeter=0;" parent="1" edge="1">
          <mxGeometry width="50" height="50" relative="1" as="geometry">
            <mxPoint x="337.3300000000004" y="520.1319999999998" as="sourcePoint" />
            <mxPoint x="125" y="520" as="targetPoint" />
          </mxGeometry>
        </mxCell>
        <mxCell id="C3ymOm5gCoxCKybidC8n-25" value="&lt;font style=&quot;font-size: 9px;&quot;&gt;ok&lt;/font&gt;" style="edgeLabel;html=1;align=center;verticalAlign=middle;resizable=0;points=[];" parent="C3ymOm5gCoxCKybidC8n-24" vertex="1" connectable="0">
          <mxGeometry x="-0.005" relative="1" as="geometry">
            <mxPoint as="offset" />
          </mxGeometry>
        </mxCell>
        <mxCell id="C3ymOm5gCoxCKybidC8n-30" value="" style="endArrow=blockThin;html=1;rounded=0;endFill=1;edgeStyle=orthogonalEdgeStyle;curved=1;fillColor=#d5e8d4;strokeColor=#82b366;" parent="1" edge="1">
          <mxGeometry width="50" height="50" relative="1" as="geometry">
            <mxPoint x="341" y="192" as="sourcePoint" />
            <mxPoint x="341" y="223" as="targetPoint" />
            <Array as="points">
              <mxPoint x="415" y="193" />
              <mxPoint x="415" y="224" />
              <mxPoint x="341" y="224" />
            </Array>
          </mxGeometry>
        </mxCell>
        <mxCell id="C3ymOm5gCoxCKybidC8n-31" value="&lt;font color=&quot;#82b366&quot;&gt;validaInput&lt;/font&gt;" style="edgeLabel;html=1;align=center;verticalAlign=middle;resizable=0;points=[];" parent="C3ymOm5gCoxCKybidC8n-30" vertex="1" connectable="0">
          <mxGeometry x="0.0111" relative="1" as="geometry">
            <mxPoint as="offset" />
          </mxGeometry>
        </mxCell>
        <mxCell id="C3ymOm5gCoxCKybidC8n-32" value=":FiltroRichieste" style="rounded=0;whiteSpace=wrap;html=1;" parent="1" vertex="1">
          <mxGeometry x="473" y="40" width="170" height="60" as="geometry" />
        </mxCell>
        <mxCell id="C3ymOm5gCoxCKybidC8n-33" value="" style="endArrow=none;dashed=1;html=1;rounded=0;exitX=0.5;exitY=1;exitDx=0;exitDy=0;" parent="1" source="C3ymOm5gCoxCKybidC8n-32" edge="1">
          <mxGeometry width="50" height="50" relative="1" as="geometry">
            <mxPoint x="745" y="249" as="sourcePoint" />
            <mxPoint x="557" y="529" as="targetPoint" />
          </mxGeometry>
        </mxCell>
        <mxCell id="C3ymOm5gCoxCKybidC8n-36" value="" style="endArrow=blockThin;html=1;rounded=0;endFill=1;edgeStyle=orthogonalEdgeStyle;curved=1;fillColor=#d5e8d4;strokeColor=#82b366;" parent="1" edge="1">
          <mxGeometry width="50" height="50" relative="1" as="geometry">
            <mxPoint x="557" y="266" as="sourcePoint" />
            <mxPoint x="557" y="297" as="targetPoint" />
            <Array as="points">
              <mxPoint x="631" y="267" />
              <mxPoint x="631" y="298" />
              <mxPoint x="557" y="298" />
            </Array>
          </mxGeometry>
        </mxCell>
        <mxCell id="C3ymOm5gCoxCKybidC8n-37" value="&lt;font color=&quot;#82b366&quot;&gt;validaInput&lt;/font&gt;" style="edgeLabel;html=1;align=center;verticalAlign=middle;resizable=0;points=[];" parent="C3ymOm5gCoxCKybidC8n-36" vertex="1" connectable="0">
          <mxGeometry x="0.0111" relative="1" as="geometry">
            <mxPoint as="offset" />
          </mxGeometry>
        </mxCell>
        <mxCell id="0QcMkQ8UB5laKc1hqfce-1" value="" style="endArrow=block;html=1;rounded=0;endFill=1;fillColor=#d5e8d4;strokeColor=#82b366;" edge="1" parent="1">
          <mxGeometry width="50" height="50" relative="1" as="geometry">
            <mxPoint x="557" y="326" as="sourcePoint" />
            <mxPoint x="778" y="328" as="targetPoint" />
          </mxGeometry>
        </mxCell>
        <mxCell id="0QcMkQ8UB5laKc1hqfce-2" value="&lt;font color=&quot;#82b366&quot; style=&quot;font-size: 5px;&quot;&gt;validazionePalestra()&lt;/font&gt;" style="edgeLabel;html=1;align=center;verticalAlign=middle;resizable=0;points=[];" vertex="1" connectable="0" parent="0QcMkQ8UB5laKc1hqfce-1">
          <mxGeometry x="-0.042" y="1" relative="1" as="geometry">
            <mxPoint as="offset" />
          </mxGeometry>
        </mxCell>
        <mxCell id="0QcMkQ8UB5laKc1hqfce-3" value="" style="endArrow=blockThin;html=1;rounded=0;endFill=1;edgeStyle=orthogonalEdgeStyle;curved=1;fillColor=#d5e8d4;strokeColor=#82b366;" edge="1" parent="1">
          <mxGeometry width="50" height="50" relative="1" as="geometry">
            <mxPoint x="780" y="348" as="sourcePoint" />
            <mxPoint x="780" y="379" as="targetPoint" />
            <Array as="points">
              <mxPoint x="854" y="349" />
              <mxPoint x="854" y="380" />
              <mxPoint x="780" y="380" />
            </Array>
          </mxGeometry>
        </mxCell>
        <mxCell id="0QcMkQ8UB5laKc1hqfce-4" value="&lt;font color=&quot;#82b366&quot;&gt;validaInput&lt;/font&gt;" style="edgeLabel;html=1;align=center;verticalAlign=middle;resizable=0;points=[];" vertex="1" connectable="0" parent="0QcMkQ8UB5laKc1hqfce-3">
          <mxGeometry x="0.0111" relative="1" as="geometry">
            <mxPoint as="offset" />
          </mxGeometry>
        </mxCell>
      </root>
    </mxGraphModel>
  </diagram>
</mxfile>
